<?xml version="1.0" encoding="UTF-8"?>
<svg xmlns="http://www.w3.org/2000/svg" viewBox="0 0 680 700" width="680" height="700">
  <defs>
    <marker id="arrow" viewBox="0 0 10 10" refX="8" refY="5" markerWidth="6" markerHeight="6" orient="auto-start-reverse">
      <path d="M2 1L8 5L2 9" fill="none" stroke="#555" stroke-width="1.5" stroke-linecap="round" stroke-linejoin="round"/>
    </marker>
    <style>
      text { font-family: Arial, sans-serif; }
      .th { font-size: 13px; font-weight: 600; fill: #1a1a2e; }
      .ts { font-size: 11px; fill: #4a4a6a; }
    </style>
  </defs>
  <rect width="680" height="700" fill="#fafaf8"/>
  <text x="340" y="28" text-anchor="middle" font-size="15" font-weight="700" fill="#1a1a2e">RAG Pipeline — End-to-End Architecture</text>
  <line x1="340" y1="38" x2="340" y2="560" stroke="#ccc" stroke-width="1" stroke-dasharray="4 4"/>
  <text x="170" y="52" text-anchor="middle" font-size="11" fill="#888">Indexing Pipeline</text>
  <text x="510" y="52" text-anchor="middle" font-size="11" fill="#888">Query Pipeline</text>
  <rect fill="#e1f5ee" stroke="#0f6e56" x="60" y="60" width="220" height="44" rx="8"/>
  <text class="th" x="170" y="79" text-anchor="middle">PDF Collection</text>
  <text class="ts" x="170" y="94" text-anchor="middle">data/pdfs/*.pdf</text>
  <line x1="170" y1="104" x2="170" y2="120" stroke="#555" stroke-width="1.2" marker-end="url(#arrow)"/>
  <rect fill="#e1f5ee" stroke="#0f6e56" x="60" y="120" width="220" height="44" rx="8"/>
  <text class="th" x="170" y="139" text-anchor="middle">PDF Loader</text>
  <text class="ts" x="170" y="154" text-anchor="middle">loader.py + pypdf</text>
  <line x1="170" y1="164" x2="170" y2="180" stroke="#555" stroke-width="1.2" marker-end="url(#arrow)"/>
  <rect fill="#e1f5ee" stroke="#0f6e56" x="60" y="180" width="220" height="44" rx="8"/>
  <text class="th" x="170" y="199" text-anchor="middle">Text Extraction</text>
  <text class="ts" x="170" y="214" text-anchor="middle">text per page + metadata</text>
  <line x1="170" y1="224" x2="170" y2="240" stroke="#555" stroke-width="1.2" marker-end="url(#arrow)"/>
  <rect fill="#eeedfe" stroke="#534ab7" x="60" y="240" width="220" height="44" rx="8"/>
  <text class="th" x="170" y="259" text-anchor="middle">Text Chunking</text>
  <text class="ts" x="170" y="274" text-anchor="middle">chunker.py · size=500 overlap=100</text>
  <line x1="170" y1="284" x2="170" y2="300" stroke="#555" stroke-width="1.2" marker-end="url(#arrow)"/>
  <rect fill="#eeedfe" stroke="#534ab7" x="60" y="300" width="220" height="44" rx="8"/>
  <text class="th" x="170" y="319" text-anchor="middle">Embedding Generation</text>
  <text class="ts" x="170" y="334" text-anchor="middle">all-MiniLM-L6-v2 · dim=384</text>
  <line x1="170" y1="344" x2="170" y2="360" stroke="#555" stroke-width="1.2" marker-end="url(#arrow)"/>
  <rect fill="#eeedfe" stroke="#534ab7" x="60" y="360" width="220" height="44" rx="8"/>
  <text class="th" x="170" y="379" text-anchor="middle">FAISS Vector Database</text>
  <text class="ts" x="170" y="394" text-anchor="middle">IndexFlatIP · cosine similarity</text>
  <rect fill="#faeeda" stroke="#854f0b" x="400" y="60" width="220" height="44" rx="8"/>
  <text class="th" x="510" y="79" text-anchor="middle">User Question</text>
  <text class="ts" x="510" y="94" text-anchor="middle">natural language query</text>
  <line x1="510" y1="104" x2="510" y2="120" stroke="#555" stroke-width="1.2" marker-end="url(#arrow)"/>
  <rect fill="#faeeda" stroke="#854f0b" x="400" y="120" width="220" height="44" rx="8"/>
  <text class="th" x="510" y="139" text-anchor="middle">Query Embedding</text>
  <text class="ts" x="510" y="154" text-anchor="middle">encode_query() · L2 normalised</text>
  <line x1="510" y1="164" x2="510" y2="180" stroke="#555" stroke-width="1.2" marker-end="url(#arrow)"/>
  <rect fill="#faeeda" stroke="#854f0b" x="400" y="180" width="220" height="44" rx="8"/>
  <text class="th" x="510" y="199" text-anchor="middle">Similarity Search</text>
  <text class="ts" x="510" y="214" text-anchor="middle">retriever.py · top-K=5</text>
  <line x1="510" y1="224" x2="510" y2="240" stroke="#555" stroke-width="1.2" marker-end="url(#arrow)"/>
  <rect fill="#faeeda" stroke="#854f0b" x="400" y="240" width="220" height="44" rx="8"/>
  <text class="th" x="510" y="259" text-anchor="middle">Top-K Relevant Chunks</text>
  <text class="ts" x="510" y="274" text-anchor="middle">filename + page + score</text>
  <line x1="510" y1="284" x2="510" y2="300" stroke="#555" stroke-width="1.2" marker-end="url(#arrow)"/>
  <rect fill="#faece7" stroke="#993c1d" x="400" y="300" width="220" height="44" rx="8"/>
  <text class="th" x="510" y="319" text-anchor="middle">Prompt Construction</text>
  <text class="ts" x="510" y="334" text-anchor="middle">TinyLlama chat template</text>
  <line x1="510" y1="344" x2="510" y2="360" stroke="#555" stroke-width="1.2" marker-end="url(#arrow)"/>
  <rect fill="#faece7" stroke="#993c1d" x="400" y="360" width="220" height="44" rx="8"/>
  <text class="th" x="510" y="379" text-anchor="middle">LLM Generation</text>
  <text class="ts" x="510" y="394" text-anchor="middle">TinyLlama-1.1B-Chat · fp16</text>
  <line x1="510" y1="404" x2="510" y2="420" stroke="#555" stroke-width="1.2" marker-end="url(#arrow)"/>
  <rect fill="#eaf3de" stroke="#3b6d11" x="400" y="420" width="220" height="44" rx="8"/>
  <text class="th" x="510" y="439" text-anchor="middle">Answer + Citations</text>
  <text class="ts" x="510" y="454" text-anchor="middle">filename + page + score + snippet</text>
  <path d="M280 382 L320 382 L320 202 L398 202" fill="none" stroke="#888" stroke-width="1" stroke-dasharray="5 3" marker-end="url(#arrow)"/>
  <text x="310" y="374" text-anchor="middle" font-size="10" fill="#888">index</text>
  <rect x="40" y="490" width="600" height="80" rx="8" fill="#f0eff8" stroke="#ccc"/>
  <text x="340" y="510" text-anchor="middle" font-size="12" font-weight="700" fill="#1a1a2e">Legend</text>
  <rect fill="#e1f5ee" stroke="#0f6e56" x="58" y="520" width="12" height="12" rx="2"/>
  <text class="ts" x="76" y="530">PDF Ingestion (loader.py)</text>
  <rect fill="#eeedfe" stroke="#534ab7" x="58" y="540" width="12" height="12" rx="2"/>
  <text class="ts" x="76" y="550">Embeddings + FAISS (embedder.py, vectorstore.py)</text>
  <rect fill="#faeeda" stroke="#854f0b" x="310" y="520" width="12" height="12" rx="2"/>
  <text class="ts" x="328" y="530">Retrieval (retriever.py)</text>
  <rect fill="#faece7" stroke="#993c1d" x="310" y="540" width="12" height="12" rx="2"/>
  <text class="ts" x="328" y="550">Generation (rag_pipeline.py)</text>
  <rect fill="#eaf3de" stroke="#3b6d11" x="530" y="520" width="12" height="12" rx="2"/>
  <text class="ts" x="548" y="530">Output</text>
  <text x="340" y="600" text-anchor="middle" font-size="11" fill="#888">Index stored: faiss_index/faiss_index.bin + metadata.pkl</text>
  <text x="340" y="618" text-anchor="middle" font-size="11" fill="#888">Bonus UI: streamlit_app.py</text>
  <text x="340" y="640" text-anchor="middle" font-size="10" fill="#aaa">nolimit-ds-test-raka | Multi-Document PDF RAG Assistant</text>
</svg>